<?xml version="1.0" encoding="UTF-8" standalone="no"?>
<!-- Generator: Adobe Illustrator 15.0.0, SVG Export Plug-In . SVG Version: 6.00 Build 0)  -->

<svg
   xmlns:dc="http://purl.org/dc/elements/1.1/"
   xmlns:cc="http://creativecommons.org/ns#"
   xmlns:rdf="http://www.w3.org/1999/02/22-rdf-syntax-ns#"
   xmlns:svg="http://www.w3.org/2000/svg"
   xmlns="http://www.w3.org/2000/svg"
   xmlns:sodipodi="http://sodipodi.sourceforge.net/DTD/sodipodi-0.dtd"
   xmlns:inkscape="http://www.inkscape.org/namespaces/inkscape"
   version="1.1"
   id="Layer_1"
   x="0px"
   y="0px"
   viewBox="0 0 399.79099 71.950996"
   enable-background="new 0 0 1368 936"
   xml:space="preserve"
   inkscape:version="0.48.5 r10040"
   sodipodi:docname="Gitenberg_full.svg"><metadata
     id="metadata27"><rdf:RDF><cc:Work
         rdf:about=""><dc:format>image/svg+xml</dc:format><dc:type
           rdf:resource="http://purl.org/dc/dcmitype/StillImage" /></cc:Work></rdf:RDF></metadata><defs
     id="defs25" /><sodipodi:namedview
     pagecolor="#ffffff"
     bordercolor="#666666"
     borderopacity="1"
     objecttolerance="10"
     gridtolerance="10"
     guidetolerance="10"
     inkscape:pageopacity="0"
     inkscape:pageshadow="2"
     inkscape:window-width="2560"
     inkscape:window-height="1545"
     id="namedview23"
     showgrid="false"
     fit-margin-top="0"
     fit-margin-left="0"
     fit-margin-right="0"
     fit-margin-bottom="0"
     inkscape:zoom="0.25213675"
     inkscape:cx="202.006"
     inkscape:cy="34.465"
     inkscape:window-x="0"
     inkscape:window-y="55"
     inkscape:window-maximized="1"
     inkscape:current-layer="Layer_1" /><g
     id="g3"
     transform="translate(-481.994,-430.514)"><path
       d="m 487.442,499.5 c -2.083,-0.802 -3.445,-2.484 -3.445,-4.728 0,-2.724 2.244,-4.968 4.968,-4.968 0.801,0 1.442,0.16 2.003,0.4 3.525,1.603 7.291,2.564 11.858,2.564 8.333,0 12.259,-4.006 12.259,-11.698 v -2.083 c -3.605,4.326 -7.532,6.971 -14.022,6.971 -10.015,0 -19.069,-7.291 -19.069,-20.031 v -0.16 c 0,-12.82 9.214,-20.031 19.069,-20.031 6.65,0 10.577,2.804 13.862,6.41 v -0.08 c 0,-3.285 2.724,-6.009 6.089,-6.009 3.365,0 6.089,2.724 6.089,6.089 v 27.643 c 0,7.692 -1.843,13.301 -5.448,16.906 -4.006,4.007 -10.176,5.77 -18.509,5.77 -5.688,0 -10.656,-0.962 -15.704,-2.965 z m 27.643,-33.572 v -0.16 c 0,-5.849 -4.567,-9.935 -10.496,-9.935 -5.929,0 -10.417,4.086 -10.417,9.935 v 0.16 c 0,5.93 4.487,9.936 10.417,9.936 5.93,0 10.496,-4.087 10.496,-9.936 z"
       id="path5"
       inkscape:connector-curvature="0"
       style="fill:#535554" /><path
       d="m 624.043,490.446 c -12.9,0 -22.435,-9.055 -22.435,-22.195 v -0.16 c 0,-12.259 8.733,-22.354 21.233,-22.354 14.342,0 20.672,11.778 20.672,20.672 0,3.526 -2.484,5.849 -5.689,5.849 h -24.117 c 1.202,5.528 5.048,8.413 10.496,8.413 3.365,0 6.17,-1.042 8.653,-2.885 0.882,-0.641 1.683,-0.961 2.965,-0.961 2.724,0 4.728,2.083 4.728,4.807 0,1.603 -0.721,2.805 -1.603,3.606 -3.766,3.204 -8.653,5.208 -14.903,5.208 z m 7.852,-25.8 c -0.721,-5.448 -3.926,-9.134 -9.054,-9.134 -5.048,0 -8.333,3.605 -9.294,9.134 h 18.348 z"
       id="path7"
       inkscape:connector-curvature="0"
       style="fill:#535554" /><path
       d="m 652.804,452.146 c 0,-3.365 2.725,-6.089 6.09,-6.089 3.365,0 6.089,2.724 6.089,6.089 v 0.481 c 2.804,-3.605 6.41,-6.891 12.579,-6.891 9.214,0 14.583,6.089 14.583,15.944 v 22.195 c 0,3.365 -2.724,6.089 -6.089,6.089 -3.366,0 -6.09,-2.724 -6.09,-6.089 v -18.349 c 0,-5.769 -2.724,-8.733 -7.371,-8.733 -4.647,0 -7.612,2.964 -7.612,8.733 v 18.349 c 0,3.365 -2.725,6.089 -6.089,6.089 -3.365,0 -6.09,-2.724 -6.09,-6.089 v -31.729 z"
       id="path9"
       inkscape:connector-curvature="0"
       style="fill:#535554" /><path
       d="m 702.717,436.603 c 0,-3.365 2.725,-6.089 6.09,-6.089 3.365,0 6.089,2.724 6.089,6.089 v 16.105 c 2.965,-4.006 7.051,-6.971 13.381,-6.971 10.016,0 19.551,7.852 19.551,22.194 v 0.16 c 0,14.342 -9.375,22.194 -19.551,22.194 -6.49,0 -10.496,-2.964 -13.381,-6.409 v 0.08 c 0,3.285 -2.724,6.009 -6.089,6.009 -3.365,0 -6.09,-2.724 -6.09,-6.089 v -47.273 z m 32.93,31.488 v -0.16 c 0,-7.131 -4.807,-11.858 -10.496,-11.858 -5.688,0 -10.416,4.727 -10.416,11.858 v 0.16 c 0,7.131 4.728,11.858 10.416,11.858 5.69,0 10.496,-4.646 10.496,-11.858 z"
       id="path11"
       inkscape:connector-curvature="0"
       style="fill:#535554" /><path
       d="m 777.147,490.446 c -12.899,0 -22.435,-9.055 -22.435,-22.195 v -0.16 c 0,-12.259 8.733,-22.354 21.232,-22.354 14.343,0 20.672,11.778 20.672,20.672 0,3.526 -2.483,5.849 -5.688,5.849 h -24.117 c 1.202,5.528 5.048,8.413 10.496,8.413 3.365,0 6.17,-1.042 8.653,-2.885 0.882,-0.641 1.683,-0.961 2.965,-0.961 2.725,0 4.728,2.083 4.728,4.807 0,1.603 -0.722,2.805 -1.603,3.606 -3.765,3.204 -8.653,5.208 -14.903,5.208 z m 7.853,-25.8 c -0.722,-5.448 -3.927,-9.134 -9.055,-9.134 -5.048,0 -8.332,3.605 -9.294,9.134 H 785 z"
       id="path13"
       inkscape:connector-curvature="0"
       style="fill:#535554" /><path
       d="m 805.909,452.146 c 0,-3.365 2.725,-6.089 6.09,-6.089 3.365,0 6.089,2.724 6.089,6.089 v 1.923 c 1.763,-4.167 4.647,-8.013 8.253,-8.013 3.766,0 5.93,2.484 5.93,5.929 0,3.205 -2.084,5.128 -4.567,5.689 -6.17,1.442 -9.615,6.169 -9.615,14.823 v 11.378 c 0,3.365 -2.724,6.089 -6.089,6.089 -3.365,0 -6.09,-2.724 -6.09,-6.089 v -31.729 z"
       id="path15"
       inkscape:connector-curvature="0"
       style="fill:#535554" /><path
       d="m 842.123,499.5 c -2.083,-0.802 -3.445,-2.484 -3.445,-4.728 0,-2.724 2.244,-4.968 4.968,-4.968 0.802,0 1.442,0.16 2.003,0.4 3.525,1.603 7.292,2.564 11.858,2.564 8.333,0 12.259,-4.006 12.259,-11.698 v -2.083 c -3.605,4.326 -7.531,6.971 -14.021,6.971 -10.016,0 -19.069,-7.291 -19.069,-20.031 v -0.16 c 0,-12.82 9.214,-20.031 19.069,-20.031 6.65,0 10.576,2.804 13.861,6.41 v -0.08 c 0,-3.285 2.725,-6.009 6.09,-6.009 3.365,0 6.089,2.724 6.089,6.089 v 27.643 c 0,7.692 -1.843,13.301 -5.448,16.906 -4.006,4.007 -10.176,5.77 -18.509,5.77 -5.689,0 -10.657,-0.962 -15.705,-2.965 z m 27.643,-33.572 v -0.16 c 0,-5.849 -4.566,-9.935 -10.496,-9.935 -5.929,0 -10.416,4.086 -10.416,9.935 v 0.16 c 0,5.93 4.487,9.936 10.416,9.936 5.929,-10e-4 10.496,-4.087 10.496,-9.936 z"
       id="path17"
       inkscape:connector-curvature="0"
       style="fill:#535554" /></g><path
     d="m 87.667,30.861 v -9.465 c 0,-3.041 2.492,-5.524 5.532,-5.524 3.041,0 5.533,2.483 5.533,5.524 v 9.465 h 9.213 c 3.121,0 5.686,2.555 5.686,5.686 0,3.112 -2.564,5.686 -5.686,5.686 h -9.213 v 9.446 c 0,3.06 -2.492,5.542 -5.533,5.542 -3.04,0 -5.532,-2.482 -5.532,-5.542 v -9.446 h -9.213 c -3.122,0 -5.686,-2.573 -5.686,-5.686 0,-3.131 2.563,-5.686 5.686,-5.686 h 9.213 z"
     id="path19"
     inkscape:connector-curvature="0"
     style="fill:#2bac3a" /><path
     d="m 60.228,20.281 c 3.202,0 5.848,2.645 5.848,5.848 v 25.073 c 0,3.203 -2.646,5.848 -5.848,5.848 -3.203,0 -5.849,-2.645 -5.849,-5.848 V 26.129 c 0,-3.204 2.646,-5.848 5.849,-5.848 z"
     id="path21"
     inkscape:connector-curvature="0"
     style="fill:#e8352b" /></svg>
