<?xml version="1.0" encoding="utf-8"?>
<!-- Generator: Adobe Illustrator 15.1.0, SVG Export Plug-In . SVG Version: 6.00 Build 0)  -->
<!DOCTYPE svg PUBLIC "-//W3C//DTD SVG 1.1//EN" "http://www.w3.org/Graphics/SVG/1.1/DTD/svg11.dtd">
<svg version="1.1"
	 id="Layer_1" xmlns:dc="http://purl.org/dc/elements/1.1/" xmlns:cc="http://creativecommons.org/ns#" xmlns:svg="http://www.w3.org/2000/svg" xmlns:inkscape="http://www.inkscape.org/namespaces/inkscape" xmlns:sodipodi="http://sodipodi.sourceforge.net/DTD/sodipodi-0.dtd" sodipodi:docname="Gitenberg_full.svg" inkscape:version="0.48.5 r10040" xmlns:rdf="http://www.w3.org/1999/02/22-rdf-syntax-ns#"
	 xmlns="http://www.w3.org/2000/svg" xmlns:xlink="http://www.w3.org/1999/xlink" x="0px" y="0px" width="308px" height="57.071px"
	 viewBox="-1 169.464 308 57.071" enable-background="new -1 169.464 308 57.071" xml:space="preserve">
<sodipodi:namedview  objecttolerance="10" borderopacity="1" inkscape:window-height="1545" id="namedview23" gridtolerance="10" bordercolor="#666666" guidetolerance="10" inkscape:pageopacity="0" inkscape:pageshadow="2" inkscape:window-width="2560" showgrid="false" fit-margin-top="0" fit-margin-left="0" fit-margin-right="0" fit-margin-bottom="0" inkscape:zoom="0.25213675" inkscape:cx="202.006" inkscape:cy="34.465" inkscape:window-x="0" inkscape:window-y="55" inkscape:window-maximized="1" inkscape:current-layer="Layer_1" pagecolor="#ffffff">
	</sodipodi:namedview>
<g id="g3" transform="translate(-481.994,-430.514)">
	<path id="path5" inkscape:connector-curvature="0" fill="#535554" stroke="#FFFFFF" stroke-miterlimit="10" d="M486.164,653.78
		c-1.594-0.613-2.637-1.9-2.637-3.618c0-2.085,1.717-3.803,3.802-3.803c0.613,0,1.104,0.122,1.533,0.306
		c2.698,1.228,5.581,1.963,9.076,1.963c6.378,0,9.383-3.066,9.383-8.953v-1.595c-2.759,3.312-5.765,5.336-10.732,5.336
		c-7.666,0-14.595-5.581-14.595-15.332v-0.123c0-9.812,7.052-15.332,14.595-15.332c5.09,0,8.096,2.146,10.61,4.906v-0.061
		c0-2.515,2.085-4.6,4.66-4.6c2.576,0,4.661,2.085,4.661,4.661v21.158c0,5.887-1.411,10.18-4.17,12.939
		c-3.066,3.066-7.789,4.416-14.167,4.416C493.83,656.049,490.028,655.313,486.164,653.78L486.164,653.78z M507.322,628.084v-0.123
		c0-4.477-3.496-7.604-8.034-7.604c-4.538,0-7.973,3.127-7.973,7.604v0.123c0,4.539,3.434,7.605,7.973,7.605
		C503.827,635.69,507.322,632.561,507.322,628.084z"/>
	<path id="path7" inkscape:connector-curvature="0" fill="#535554" stroke="#FFFFFF" stroke-miterlimit="10" d="M590.718,646.85
		c-9.874,0-17.171-6.93-17.171-16.988v-0.122c0-9.383,6.684-17.109,16.251-17.109c10.978,0,15.822,9.015,15.822,15.822
		c0,2.698-1.901,4.477-4.354,4.477h-18.459c0.92,4.231,3.864,6.439,8.034,6.439c2.576,0,4.723-0.798,6.623-2.208
		c0.675-0.49,1.288-0.736,2.27-0.736c2.085,0,3.619,1.595,3.619,3.68c0,1.227-0.552,2.146-1.227,2.76
		C599.243,645.317,595.502,646.85,590.718,646.85L590.718,646.85z M596.728,627.103c-0.552-4.17-3.005-6.991-6.93-6.991
		c-3.864,0-6.378,2.759-7.114,6.991H596.728z"/>
	<path id="path9" inkscape:connector-curvature="0" fill="#535554" stroke="#FFFFFF" stroke-miterlimit="10" d="M612.732,617.536
		c0-2.576,2.086-4.661,4.662-4.661c2.575,0,4.66,2.085,4.66,4.661v0.368c2.146-2.759,4.906-5.274,9.628-5.274
		c7.053,0,11.162,4.661,11.162,12.204v16.988c0,2.576-2.085,4.66-4.66,4.66c-2.576,0-4.662-2.084-4.662-4.66v-14.044
		c0-4.416-2.085-6.685-5.642-6.685c-3.557,0-5.827,2.269-5.827,6.685v14.044c0,2.576-2.085,4.66-4.66,4.66
		c-2.576,0-4.662-2.084-4.662-4.66V617.536z"/>
	<path id="path11" inkscape:connector-curvature="0" fill="#535554" stroke="#FFFFFF" stroke-miterlimit="10" d="M650.935,605.639
		c0-2.576,2.086-4.661,4.661-4.661s4.661,2.085,4.661,4.661v12.327c2.27-3.066,5.396-5.335,10.241-5.335
		c7.667,0,14.964,6.01,14.964,16.987v0.122c0,10.978-7.175,16.987-14.964,16.987c-4.968,0-8.034-2.269-10.241-4.905v0.062
		c0,2.514-2.086,4.6-4.661,4.6s-4.661-2.086-4.661-4.661V605.639z M676.141,629.74v-0.122c0-5.458-3.68-9.076-8.034-9.076
		c-4.354,0-7.972,3.618-7.972,9.076v0.122c0,5.458,3.618,9.076,7.972,9.076C672.462,638.816,676.141,635.26,676.141,629.74z"/>
	<path id="path13" inkscape:connector-curvature="0" fill="#535554" stroke="#FFFFFF" stroke-miterlimit="10" d="M707.904,646.85
		c-9.873,0-17.172-6.93-17.172-16.988v-0.122c0-9.383,6.684-17.109,16.251-17.109c10.978,0,15.822,9.015,15.822,15.822
		c0,2.698-1.9,4.477-4.354,4.477h-18.459c0.92,4.231,3.864,6.439,8.034,6.439c2.574,0,4.722-0.798,6.623-2.208
		c0.674-0.49,1.287-0.736,2.269-0.736c2.086,0,3.619,1.595,3.619,3.68c0,1.227-0.553,2.146-1.228,2.76
		C716.43,645.317,712.687,646.85,707.904,646.85L707.904,646.85z M713.915,627.103c-0.553-4.17-3.006-6.991-6.931-6.991
		c-3.863,0-6.377,2.759-7.113,6.991H713.915z"/>
	<path id="path15" inkscape:connector-curvature="0" fill="#535554" stroke="#FFFFFF" stroke-miterlimit="10" d="M729.919,617.536
		c0-2.576,2.085-4.661,4.661-4.661s4.66,2.085,4.66,4.661v1.472c1.35-3.189,3.557-6.133,6.316-6.133
		c2.883,0,4.539,1.901,4.539,4.538c0,2.453-1.595,3.925-3.495,4.354c-4.723,1.104-7.359,4.722-7.359,11.345v8.709
		c0,2.576-2.085,4.66-4.661,4.66c-2.574,0-4.66-2.084-4.66-4.66L729.919,617.536L729.919,617.536z"/>
	<path id="path17" inkscape:connector-curvature="0" fill="#535554" stroke="#FFFFFF" stroke-miterlimit="10" d="M757.637,653.78
		c-1.594-0.613-2.637-1.9-2.637-3.618c0-2.085,1.718-3.803,3.803-3.803c0.613,0,1.104,0.122,1.533,0.306
		c2.697,1.228,5.581,1.963,9.076,1.963c6.378,0,9.383-3.066,9.383-8.953v-1.595c-2.76,3.312-5.765,5.336-10.732,5.336
		c-7.666,0-14.595-5.581-14.595-15.332v-0.123c0-9.812,7.052-15.332,14.595-15.332c5.09,0,8.096,2.146,10.609,4.906v-0.061
		c0-2.515,2.086-4.6,4.662-4.6c2.575,0,4.66,2.085,4.66,4.661v21.158c0,5.887-1.41,10.18-4.17,12.939
		c-3.066,3.066-7.789,4.416-14.167,4.416C765.303,656.049,761.5,655.313,757.637,653.78z M778.795,628.084v-0.123
		c0-4.477-3.495-7.604-8.033-7.604c-4.539,0-7.973,3.127-7.973,7.604v0.123c0,4.539,3.434,7.605,7.973,7.605
		C775.299,635.688,778.795,632.561,778.795,628.084z"/>
</g>
<path id="path19" inkscape:connector-curvature="0" fill="#2BAC3A" stroke="#FFFFFF" stroke-miterlimit="10" d="M67.1,194.085
	v-7.245c0-2.328,1.908-4.228,4.234-4.228c2.328,0,4.235,1.9,4.235,4.228v7.245h7.052c2.389,0,4.352,1.956,4.352,4.352
	c0,2.382-1.962,4.352-4.352,4.352h-7.052v7.23c0,2.342-1.907,4.242-4.235,4.242c-2.327,0-4.234-1.9-4.234-4.242v-7.23h-7.051
	c-2.39,0-4.352-1.969-4.352-4.352c0-2.396,1.961-4.352,4.352-4.352H67.1z"/>
<path id="path21" inkscape:connector-curvature="0" fill="#E8352B" stroke="#FFFFFF" stroke-miterlimit="10" d="M46.099,185.987
	c2.451,0,4.476,2.024,4.476,4.476v19.191c0,2.451-2.025,4.477-4.476,4.477c-2.452,0-4.477-2.025-4.477-4.477v-19.191
	C41.622,188.011,43.647,185.987,46.099,185.987z"/>
</svg>
